<?xml version="1.0" standalone="no"?>
<!DOCTYPE svg PUBLIC "-//W3C//DTD SVG 20010904//EN"
 "http://www.w3.org/TR/2001/REC-SVG-20010904/DTD/svg10.dtd">
<svg version="1.0" xmlns="http://www.w3.org/2000/svg"
 width="348.000000pt" height="348.000000pt" viewBox="0 0 348.000000 348.000000"
 preserveAspectRatio="xMidYMid meet">

<g transform="translate(0.000000,348.000000) scale(0.100000,-0.100000)"
fill="#000000" stroke="none">
<path d="M1585 3470 c-376 -27 -757 -199 -1033 -464 -224 -215 -361 -427 -456
-703 -71 -206 -81 -278 -81 -563 0 -271 6 -321 60 -499 176 -578 626 -1020
1196 -1175 137 -37 188 -46 343 -56 335 -23 606 30 901 175 479 237 810 665
927 1198 20 91 23 130 23 357 0 228 -2 266 -23 356 -52 232 -132 423 -257 609
-301 450 -778 728 -1310 765 -143 10 -146 10 -290 0z m375 -225 c573 -87 1025
-461 1214 -1003 62 -178 80 -292 80 -492 0 -198 -13 -286 -70 -466 -175 -553
-678 -967 -1256 -1035 -123 -14 -338 -7 -461 15 -370 68 -728 297 -952 611
-324 455 -368 1063 -114 1560 210 411 597 706 1046 795 54 11 114 21 133 23
90 10 294 5 380 -8z"/>
<path d="M1490 2757 c-113 -43 -264 -124 -364 -194 -45 -32 -162 -139 -267
-243 -202 -202 -297 -328 -359 -476 -53 -127 -96 -340 -75 -373 4 -7 30 28 62
81 87 144 157 234 272 349 112 112 169 148 246 157 37 4 47 1 69 -21 l26 -26
3 -363 c3 -557 4 -538 -29 -566 -24 -21 -35 -24 -85 -20 l-58 4 30 -37 c121
-153 386 -283 682 -335 l92 -16 130 135 130 136 75 -66 c41 -36 94 -81 118
-100 l42 -36 68 45 c194 131 384 345 513 579 20 38 36 69 34 69 -1 0 -18 -14
-36 -32 -139 -130 -239 -188 -325 -188 -36 0 -59 6 -75 19 l-24 19 0 509 0
508 56 85 c31 47 98 137 148 200 69 86 88 116 76 118 -25 6 -180 -45 -270 -88
-103 -49 -212 -121 -300 -199 -53 -46 -75 -60 -90 -55 -77 23 -124 34 -154 34
l-34 0 38 -37 c20 -20 48 -59 61 -87 l24 -51 0 -465 -1 -465 -42 -32 c-49 -37
-138 -80 -183 -89 -51 -9 -108 12 -148 56 l-36 40 0 534 0 534 -37 -5 c-31 -4
-42 0 -61 20 -43 46 -49 196 -11 270 27 51 83 119 131 157 28 22 44 40 37 40
-8 -1 -52 -15 -99 -33z"/>
</g>
</svg>
