<?xml version="1.0" standalone="no"?>
<!DOCTYPE svg PUBLIC "-//W3C//DTD SVG 20010904//EN"
 "http://www.w3.org/TR/2001/REC-SVG-20010904/DTD/svg10.dtd">
<svg version="1.0" xmlns="http://www.w3.org/2000/svg"
 width="300.000000pt" height="300.000000pt" viewBox="0 0 300.000000 300.000000"
 preserveAspectRatio="xMidYMid meet">

<g transform="translate(0.000000,300.000000) scale(0.100000,-0.100000)"
fill="#000000" stroke="none">
<path d="M750 2245 l-745 -745 746 -746 c611 -611 749 -745 763 -737 23 13
615 603 627 625 6 10 9 190 9 435 l-1 418 416 3 c228 1 415 5 415 8 0 10
-1465 1484 -1475 1484 -6 0 -345 -335 -755 -745z m1072 -422 c170 -170 308
-311 308 -315 0 -5 -142 -8 -315 -8 l-315 0 0 -315 c0 -173 -3 -315 -8 -315
-4 0 -149 142 -322 315 l-315 315 315 315 c173 173 322 315 330 315 8 0 153
-138 322 -307z"/>
</g>
</svg>
