<?xml version="1.0" standalone="no"?>
<!DOCTYPE svg PUBLIC "-//W3C//DTD SVG 20010904//EN"
 "http://www.w3.org/TR/2001/REC-SVG-20010904/DTD/svg10.dtd">
<svg version="1.0" xmlns="http://www.w3.org/2000/svg"
 width="1920.000000pt" height="1280.000000pt" viewBox="0 0 1920.000000 1280.000000"
 preserveAspectRatio="xMidYMid meet">

<g transform="translate(0.000000,1280.000000) scale(0.100000,-0.100000)"
fill="#000000" stroke="none">
<path d="M0 6400 l0 -6400 9600 0 9600 0 0 6400 0 6400 -9600 0 -9600 0 0
-6400z m9675 4010 c582 -50 1078 -246 1535 -608 228 -181 502 -495 639 -732
253 -440 373 -857 388 -1350 19 -640 -175 -1237 -571 -1760 -98 -129 -369
-403 -491 -495 -329 -251 -655 -408 -1042 -504 -742 -185 -1532 -51 -2173 368
-634 414 -1072 1072 -1210 1816 -65 350 -55 798 26 1135 114 481 362 935 701
1286 392 406 912 691 1458 798 246 48 516 65 740 46z m-3775 -6450 c5 -325 6
-347 25 -372 36 -49 99 -63 290 -63 190 1 237 10 279 54 38 40 45 107 46 454
l0 278 143 -3 142 -3 3 -387 c2 -366 1 -389 -18 -440 -57 -152 -208 -195 -658
-186 -268 6 -345 19 -433 71 -43 26 -59 44 -84 91 l-30 60 -3 398 -3 399 148
-3 148 -3 5 -345z m1652 258 c41 -51 121 -156 178 -233 58 -77 112 -147 120
-157 8 -9 53 -69 100 -132 47 -63 91 -115 97 -116 10 0 13 82 15 363 l3 362
140 0 140 0 0 -500 0 -500 -216 -3 -217 -2 -36 42 c-36 44 -260 333 -433 561
-53 70 -103 127 -110 127 -10 0 -13 -73 -13 -365 l0 -366 -142 3 -143 3 -3
490 c-1 270 0 496 3 503 3 9 58 12 224 12 l220 0 73 -92z m2015 70 c77 -22
127 -59 154 -115 22 -43 24 -61 24 -183 0 -133 -1 -136 -31 -190 -23 -40 -42
-60 -72 -75 -23 -11 -41 -22 -41 -25 -1 -3 23 -14 51 -25 81 -31 91 -56 92
-229 l1 -141 -145 0 -145 0 -5 95 c-6 110 -22 143 -79 161 -22 8 -130 14 -273
16 l-238 5 0 -125 c0 -69 -3 -132 -6 -141 -5 -14 -28 -16 -150 -16 l-144 0 0
498 c0 274 3 502 7 506 5 4 219 6 478 4 382 -4 480 -7 522 -20z m1441 -95 l3
-113 -385 0 -386 0 -5 -23 c-4 -13 -5 -48 -3 -78 l3 -54 363 -3 363 -2 9 -26
c14 -36 13 -167 -2 -182 -9 -9 -105 -12 -370 -12 l-358 0 -5 -23 c-4 -13 -5
-48 -3 -78 l3 -54 395 -5 395 -5 0 -115 0 -115 -540 0 -540 0 -3 490 c-1 270
0 496 3 503 3 10 115 12 532 10 l528 -3 3 -112z m1070 -43 c46 -85 132 -245
192 -355 59 -110 122 -227 140 -260 18 -33 52 -96 76 -141 24 -44 41 -84 37
-87 -3 -4 -75 -7 -159 -7 l-152 0 -47 90 -46 90 -311 -2 -312 -3 -37 -75 c-21
-41 -42 -81 -49 -87 -17 -20 -310 -18 -310 1 0 14 29 69 232 446 104 193 142
264 221 410 22 41 48 90 59 108 l20 32 181 -2 182 -3 83 -155z m856 143 c4 -9
6 -177 6 -372 -1 -196 -1 -362 0 -368 0 -10 77 -13 333 -15 l332 -3 0 -115 0
-115 -480 0 -480 0 -3 490 c-1 270 0 496 3 503 3 9 41 12 144 12 121 0 140 -2
145 -17z m-5016 -1346 c5 -78 9 -77 -234 -77 l-214 0 0 -45 0 -45 208 -2 207
-3 3 -62 3 -63 -208 -2 -208 -3 -3 -42 -3 -43 223 -2 223 -3 0 -65 0 -65 -305
0 -305 0 -5 275 c-3 151 -3 281 -1 288 2 10 69 12 310 10 l306 -3 3 -48z m364
40 c7 -8 47 -58 88 -112 41 -54 104 -134 139 -179 34 -44 65 -87 68 -93 16
-41 23 9 25 190 l3 202 80 0 80 0 0 -285 0 -285 -125 0 -124 0 -156 197 c-85
109 -159 199 -165 200 -6 2 -12 -71 -15 -197 l-5 -200 -74 -3 c-53 -2 -77 1
-82 10 -10 15 -12 528 -3 552 5 13 26 16 129 16 89 0 127 -4 137 -13z m1252
-16 c54 -27 76 -64 76 -131 l0 -40 -85 0 c-79 0 -85 1 -85 21 0 34 -55 49
-172 48 -57 0 -121 -6 -143 -13 -36 -10 -41 -16 -52 -56 -12 -48 -7 -182 8
-212 14 -27 74 -38 194 -37 135 1 157 7 170 43 13 37 3 41 -106 44 -51 2 -96
5 -101 8 -4 3 -8 28 -8 55 l0 49 193 -2 192 -3 3 -80 c6 -145 -31 -211 -128
-233 -63 -15 -387 -16 -450 -1 -58 13 -106 46 -122 84 -9 20 -13 84 -13 196 0
192 10 225 77 255 63 28 104 33 308 31 184 -2 198 -3 244 -26z m350 23 c14 -5
16 -40 16 -285 l0 -279 -23 -5 c-13 -4 -50 -5 -82 -3 l-60 3 -3 275 c-1 151 0
280 3 287 5 14 119 19 149 7z m553 -199 c84 -110 157 -201 163 -203 6 -2 11
71 12 200 l3 203 80 0 80 0 3 -274 c2 -193 -1 -278 -9 -287 -8 -10 -39 -14
-118 -13 -58 0 -113 3 -122 7 -9 4 -85 95 -168 202 -83 107 -156 197 -161 198
-6 2 -10 -70 -10 -197 l0 -201 -23 -5 c-13 -4 -50 -5 -82 -3 l-60 3 -3 288 -2
288 132 -3 133 -3 152 -200z m1080 135 c0 -33 -1 -61 -1 -62 -1 -1 -100 -4
-221 -7 l-220 -6 0 -40 0 -40 205 -5 205 -5 3 -57 3 -58 -195 0 c-107 0 -201
-3 -210 -6 -11 -4 -16 -19 -16 -45 l0 -39 223 -2 222 -3 0 -65 0 -65 -292 -3
c-232 -2 -294 0 -305 11 -10 11 -12 69 -10 285 l3 272 303 0 303 0 0 -60z"/>
<path d="M9311 10229 c-801 -51 -1519 -462 -1982 -1134 -124 -180 -239 -414
-307 -625 -56 -171 -84 -283 -108 -430 -21 -128 -30 -502 -15 -652 42 -430
204 -865 453 -1220 342 -486 836 -841 1398 -1003 816 -236 1676 -63 2348 472
248 198 494 493 645 773 148 277 234 533 288 855 29 176 32 550 6 730 -33 224
-114 511 -187 670 -18 39 -40 88 -50 110 -53 123 -209 367 -324 510 -65 81
-304 316 -391 385 -499 396 -1145 600 -1774 559z m-111 -764 c0 -2 -21 -19
-47 -37 -153 -104 -275 -274 -313 -437 -22 -95 3 -254 48 -304 41 -45 79 -53
165 -32 l27 7 0 -906 c0 -880 1 -908 20 -945 23 -47 70 -87 129 -114 36 -16
60 -19 125 -15 71 4 92 10 176 51 52 26 127 70 165 99 l70 53 3 750 c1 468 -2
770 -8 805 -15 83 -71 189 -136 254 -31 33 -52 62 -47 67 4 4 49 4 101 -1 71
-8 111 -18 167 -44 l73 -34 58 60 c231 235 492 401 771 492 114 36 261 71 270
63 2 -3 -34 -44 -81 -91 -189 -191 -333 -421 -397 -636 -22 -74 -23 -84 -26
-765 -2 -379 0 -748 4 -820 l8 -130 50 -28 c135 -75 314 13 607 301 48 47 90
83 93 80 15 -15 -66 -241 -137 -383 -135 -270 -360 -522 -628 -702 -90 -60
-237 -136 -250 -128 -5 3 -70 75 -145 160 -75 85 -139 155 -143 155 -3 0 -118
-111 -254 -247 l-247 -246 -98 6 c-135 9 -307 42 -438 84 -195 62 -437 192
-590 316 -128 104 -327 318 -311 334 3 4 23 1 45 -5 53 -16 155 -15 196 2 22
10 41 28 54 55 21 39 21 53 21 766 0 793 2 766 -58 828 -51 54 -90 71 -161 71
-100 1 -161 -40 -256 -172 -48 -68 -157 -285 -181 -361 -10 -34 -23 -61 -28
-61 -12 0 -1 195 19 305 39 226 135 469 262 664 259 398 639 672 1098 791 105
27 155 35 155 25z"/>
<path d="M8862 3943 l3 -138 220 -3 c236 -3 311 6 341 39 15 17 19 37 19 100
0 73 -2 81 -28 106 l-27 28 -265 3 -266 3 3 -138z"/>
<path d="M11712 3905 c-50 -97 -93 -184 -94 -193 -3 -15 15 -17 185 -20 144
-2 189 0 192 10 5 13 -156 342 -180 366 -10 11 -28 -17 -103 -163z"/>
</g>
</svg>
